<?xml version="1.0" standalone="no"?>
<!DOCTYPE svg PUBLIC "-//W3C//DTD SVG 20010904//EN"
 "http://www.w3.org/TR/2001/REC-SVG-20010904/DTD/svg10.dtd">
<svg version="1.0" xmlns="http://www.w3.org/2000/svg"
 width="300.000000pt" height="300.000000pt" viewBox="0 0 300.000000 300.000000"
 preserveAspectRatio="xMidYMid meet">
<metadata>
Created by potrace 1.14, written by Peter Selinger 2001-2017
</metadata>
<g transform="translate(0.000000,300.000000) scale(0.100000,-0.100000)"
fill="#000000" stroke="none">
<path d="M0 1500 l0 -1500 1500 0 1500 0 0 1500 0 1500 -1500 0 -1500 0 0
-1500z m2900 0 l0 -1400 -402 2 -403 3 0 145 0 145 48 3 47 3 0 194 0 194 98
3 97 3 0 290 0 290 -47 3 -48 3 -2 292 -3 292 -47 3 -48 3 0 45 0 44 -45 0
c-48 0 -51 4 -57 75 -3 28 -6 30 -50 33 l-48 3 0 45 c0 43 0 44 -34 44 -57 0
-66 8 -66 56 l0 44 -94 0 -95 0 -3 48 -3 47 -192 3 -192 2 -3 -47 -3 -48 -95
-5 -95 -5 -5 -45 -5 -45 -47 -3 -48 -3 0 -44 0 -44 -47 -3 -48 -3 -5 -50 -5
-50 -42 -3 c-42 -3 -42 -3 -45 -45 l-3 -42 -47 -3 -48 -3 0 -295 0 -294 -50 0
-50 0 0 -295 0 -295 100 0 100 0 0 -145 0 -145 45 0 c45 0 45 0 45 -34 0 -57
8 -66 56 -66 l44 0 0 -150 0 -150 -455 0 -455 0 0 1400 0 1400 1400 0 1400 0
0 -1400z m-922 418 l3 -48 60 0 59 0 0 -640 0 -640 -50 0 -50 0 0 -50 0 -50
-445 0 -445 0 0 49 0 50 -47 3 -48 3 -3 47 -3 47 -47 3 -47 3 -3 588 -2 587
65 0 65 0 0 50 0 50 468 -2 467 -3 3 -47z m-378 -1583 l0 -55 -145 0 -145 0 0
-40 0 -40 80 0 80 0 0 -50 0 -50 -180 0 -180 0 0 100 0 100 100 0 100 0 0 45
0 45 145 0 145 0 0 -55z m290 -190 l0 -45 -53 0 -52 0 3 45 4 45 49 0 49 0 0
-45z"/>
<path d="M1040 1525 l0 -65 118 0 c64 0 123 4 130 9 9 5 12 25 10 62 l-3 54
-127 3 -128 3 0 -66z"/>
<path d="M1720 1525 l0 -66 123 3 122 3 3 63 3 62 -126 0 -125 0 0 -65z"/>
<path d="M1420 940 l0 -50 141 0 140 0 -3 48 -3 47 -137 3 -138 3 0 -51z"/>
</g>
</svg>
